<?xml version="1.0" encoding="UTF-8"?>
<svg width="244px" height="244px" viewBox="0 0 244 244" version="1.1" xmlns="http://www.w3.org/2000/svg" xmlns:xlink="http://www.w3.org/1999/xlink">
    <title>356277C8-88F4-4124-B821-FC2FD3D82500</title>
    <g id="Page-1" stroke="none" stroke-width="1" fill="none" fill-rule="evenodd" opacity="0.1">
        <g id="Landing-page" transform="translate(13.000000, 0.000000)" fill="#0288DF">
            <g id="element-copy" transform="translate(-13.000000, 0.000000)">
                <g id="Group-2" transform="translate(0.000000, 26.000000)">
                    <ellipse id="Oval" cx="5.19148936" cy="5.5" rx="5.19148936" ry="5.5"></ellipse>
                    <ellipse id="Oval-Copy" cx="31.1489362" cy="5.5" rx="5.19148936" ry="5.5"></ellipse>
                    <ellipse id="Oval-Copy-2" cx="57.106383" cy="5.5" rx="5.19148936" ry="5.5"></ellipse>
                    <ellipse id="Oval-Copy-3" cx="83.0638298" cy="5.5" rx="5.19148936" ry="5.5"></ellipse>
                    <ellipse id="Oval-Copy-4" cx="109.021277" cy="5.5" rx="5.19148936" ry="5.5"></ellipse>
                    <ellipse id="Oval-Copy-5" cx="134.978723" cy="5.5" rx="5.19148936" ry="5.5"></ellipse>
                    <ellipse id="Oval-Copy-6" cx="160.93617" cy="5.5" rx="5.19148936" ry="5.5"></ellipse>
                    <ellipse id="Oval-Copy-7" cx="186.893617" cy="5.5" rx="5.19148936" ry="5.5"></ellipse>
                    <ellipse id="Oval-Copy-8" cx="212.851064" cy="5.5" rx="5.19148936" ry="5.5"></ellipse>
                    <ellipse id="Oval-Copy-9" cx="238.808511" cy="5.5" rx="5.19148936" ry="5.5"></ellipse>
                </g>
                <g id="Group-2-Copy" transform="translate(0.000000, 51.000000)">
                    <ellipse id="Oval" cx="5.19148936" cy="5.5" rx="5.19148936" ry="5.5"></ellipse>
                    <ellipse id="Oval-Copy" cx="31.1489362" cy="5.5" rx="5.19148936" ry="5.5"></ellipse>
                    <ellipse id="Oval-Copy-2" cx="57.106383" cy="5.5" rx="5.19148936" ry="5.5"></ellipse>
                    <ellipse id="Oval-Copy-3" cx="83.0638298" cy="5.5" rx="5.19148936" ry="5.5"></ellipse>
                    <ellipse id="Oval-Copy-4" cx="109.021277" cy="5.5" rx="5.19148936" ry="5.5"></ellipse>
                    <ellipse id="Oval-Copy-5" cx="134.978723" cy="5.5" rx="5.19148936" ry="5.5"></ellipse>
                    <ellipse id="Oval-Copy-6" cx="160.93617" cy="5.5" rx="5.19148936" ry="5.5"></ellipse>
                    <ellipse id="Oval-Copy-7" cx="186.893617" cy="5.5" rx="5.19148936" ry="5.5"></ellipse>
                    <ellipse id="Oval-Copy-8" cx="212.851064" cy="5.5" rx="5.19148936" ry="5.5"></ellipse>
                    <ellipse id="Oval-Copy-9" cx="238.808511" cy="5.5" rx="5.19148936" ry="5.5"></ellipse>
                </g>
                <g id="Group-2-Copy-2" transform="translate(0.000000, 77.000000)">
                    <ellipse id="Oval" cx="5.19148936" cy="5.5" rx="5.19148936" ry="5.5"></ellipse>
                    <ellipse id="Oval-Copy" cx="31.1489362" cy="5.5" rx="5.19148936" ry="5.5"></ellipse>
                    <ellipse id="Oval-Copy-2" cx="57.106383" cy="5.5" rx="5.19148936" ry="5.5"></ellipse>
                    <ellipse id="Oval-Copy-3" cx="83.0638298" cy="5.5" rx="5.19148936" ry="5.5"></ellipse>
                    <ellipse id="Oval-Copy-4" cx="109.021277" cy="5.5" rx="5.19148936" ry="5.5"></ellipse>
                    <ellipse id="Oval-Copy-5" cx="134.978723" cy="5.5" rx="5.19148936" ry="5.5"></ellipse>
                    <ellipse id="Oval-Copy-6" cx="160.93617" cy="5.5" rx="5.19148936" ry="5.5"></ellipse>
                    <ellipse id="Oval-Copy-7" cx="186.893617" cy="5.5" rx="5.19148936" ry="5.5"></ellipse>
                    <ellipse id="Oval-Copy-8" cx="212.851064" cy="5.5" rx="5.19148936" ry="5.5"></ellipse>
                    <ellipse id="Oval-Copy-9" cx="238.808511" cy="5.5" rx="5.19148936" ry="5.5"></ellipse>
                </g>
                <g id="Group-2-Copy-3" transform="translate(0.000000, 103.000000)">
                    <ellipse id="Oval" cx="5.19148936" cy="5.5" rx="5.19148936" ry="5.5"></ellipse>
                    <ellipse id="Oval-Copy" cx="31.1489362" cy="5.5" rx="5.19148936" ry="5.5"></ellipse>
                    <ellipse id="Oval-Copy-2" cx="57.106383" cy="5.5" rx="5.19148936" ry="5.5"></ellipse>
                    <ellipse id="Oval-Copy-3" cx="83.0638298" cy="5.5" rx="5.19148936" ry="5.5"></ellipse>
                    <ellipse id="Oval-Copy-4" cx="109.021277" cy="5.5" rx="5.19148936" ry="5.5"></ellipse>
                    <ellipse id="Oval-Copy-5" cx="134.978723" cy="5.5" rx="5.19148936" ry="5.5"></ellipse>
                    <ellipse id="Oval-Copy-6" cx="160.93617" cy="5.5" rx="5.19148936" ry="5.5"></ellipse>
                    <ellipse id="Oval-Copy-7" cx="186.893617" cy="5.5" rx="5.19148936" ry="5.5"></ellipse>
                    <ellipse id="Oval-Copy-8" cx="212.851064" cy="5.5" rx="5.19148936" ry="5.5"></ellipse>
                    <ellipse id="Oval-Copy-9" cx="238.808511" cy="5.5" rx="5.19148936" ry="5.5"></ellipse>
                </g>
                <g id="Group-2-Copy-4" transform="translate(0.000000, 130.000000)">
                    <ellipse id="Oval" cx="5.19148936" cy="5.5" rx="5.19148936" ry="5.5"></ellipse>
                    <ellipse id="Oval-Copy" cx="31.1489362" cy="5.5" rx="5.19148936" ry="5.5"></ellipse>
                    <ellipse id="Oval-Copy-2" cx="57.106383" cy="5.5" rx="5.19148936" ry="5.5"></ellipse>
                    <ellipse id="Oval-Copy-3" cx="83.0638298" cy="5.5" rx="5.19148936" ry="5.5"></ellipse>
                    <ellipse id="Oval-Copy-4" cx="109.021277" cy="5.5" rx="5.19148936" ry="5.5"></ellipse>
                    <ellipse id="Oval-Copy-5" cx="134.978723" cy="5.5" rx="5.19148936" ry="5.5"></ellipse>
                    <ellipse id="Oval-Copy-6" cx="160.93617" cy="5.5" rx="5.19148936" ry="5.5"></ellipse>
                    <ellipse id="Oval-Copy-7" cx="186.893617" cy="5.5" rx="5.19148936" ry="5.5"></ellipse>
                    <ellipse id="Oval-Copy-8" cx="212.851064" cy="5.5" rx="5.19148936" ry="5.5"></ellipse>
                    <ellipse id="Oval-Copy-9" cx="238.808511" cy="5.5" rx="5.19148936" ry="5.5"></ellipse>
                </g>
                <g id="Group-2-Copy-5" transform="translate(0.000000, 156.000000)">
                    <ellipse id="Oval" cx="5.19148936" cy="5.5" rx="5.19148936" ry="5.5"></ellipse>
                    <ellipse id="Oval-Copy" cx="31.1489362" cy="5.5" rx="5.19148936" ry="5.5"></ellipse>
                    <ellipse id="Oval-Copy-2" cx="57.106383" cy="5.5" rx="5.19148936" ry="5.5"></ellipse>
                    <ellipse id="Oval-Copy-3" cx="83.0638298" cy="5.5" rx="5.19148936" ry="5.5"></ellipse>
                    <ellipse id="Oval-Copy-4" cx="109.021277" cy="5.5" rx="5.19148936" ry="5.5"></ellipse>
                    <ellipse id="Oval-Copy-5" cx="134.978723" cy="5.5" rx="5.19148936" ry="5.5"></ellipse>
                    <ellipse id="Oval-Copy-6" cx="160.93617" cy="5.5" rx="5.19148936" ry="5.5"></ellipse>
                    <ellipse id="Oval-Copy-7" cx="186.893617" cy="5.5" rx="5.19148936" ry="5.5"></ellipse>
                    <ellipse id="Oval-Copy-8" cx="212.851064" cy="5.5" rx="5.19148936" ry="5.5"></ellipse>
                    <ellipse id="Oval-Copy-9" cx="238.808511" cy="5.5" rx="5.19148936" ry="5.5"></ellipse>
                </g>
                <g id="Group-2-Copy-6">
                    <ellipse id="Oval" cx="5.19148936" cy="5.5" rx="5.19148936" ry="5.5"></ellipse>
                    <ellipse id="Oval-Copy" cx="31.1489362" cy="5.5" rx="5.19148936" ry="5.5"></ellipse>
                    <ellipse id="Oval-Copy-2" cx="57.106383" cy="5.5" rx="5.19148936" ry="5.5"></ellipse>
                    <ellipse id="Oval-Copy-3" cx="83.0638298" cy="5.5" rx="5.19148936" ry="5.5"></ellipse>
                    <ellipse id="Oval-Copy-4" cx="109.021277" cy="5.5" rx="5.19148936" ry="5.5"></ellipse>
                    <ellipse id="Oval-Copy-5" cx="134.978723" cy="5.5" rx="5.19148936" ry="5.5"></ellipse>
                    <ellipse id="Oval-Copy-6" cx="160.93617" cy="5.5" rx="5.19148936" ry="5.5"></ellipse>
                    <ellipse id="Oval-Copy-7" cx="186.893617" cy="5.5" rx="5.19148936" ry="5.5"></ellipse>
                    <ellipse id="Oval-Copy-8" cx="212.851064" cy="5.5" rx="5.19148936" ry="5.5"></ellipse>
                    <ellipse id="Oval-Copy-9" cx="238.808511" cy="5.5" rx="5.19148936" ry="5.5"></ellipse>
                </g>
                <g id="Group-2-Copy-7" transform="translate(0.000000, 182.000000)">
                    <ellipse id="Oval" cx="5.19148936" cy="5.5" rx="5.19148936" ry="5.5"></ellipse>
                    <ellipse id="Oval-Copy" cx="31.1489362" cy="5.5" rx="5.19148936" ry="5.5"></ellipse>
                    <ellipse id="Oval-Copy-2" cx="57.106383" cy="5.5" rx="5.19148936" ry="5.5"></ellipse>
                    <ellipse id="Oval-Copy-3" cx="83.0638298" cy="5.5" rx="5.19148936" ry="5.5"></ellipse>
                    <ellipse id="Oval-Copy-4" cx="109.021277" cy="5.5" rx="5.19148936" ry="5.5"></ellipse>
                    <ellipse id="Oval-Copy-5" cx="134.978723" cy="5.5" rx="5.19148936" ry="5.5"></ellipse>
                    <ellipse id="Oval-Copy-6" cx="160.93617" cy="5.5" rx="5.19148936" ry="5.5"></ellipse>
                    <ellipse id="Oval-Copy-7" cx="186.893617" cy="5.5" rx="5.19148936" ry="5.5"></ellipse>
                    <ellipse id="Oval-Copy-8" cx="212.851064" cy="5.5" rx="5.19148936" ry="5.5"></ellipse>
                    <ellipse id="Oval-Copy-9" cx="238.808511" cy="5.5" rx="5.19148936" ry="5.5"></ellipse>
                </g>
                <g id="Group-2-Copy-8" transform="translate(0.000000, 207.000000)">
                    <ellipse id="Oval" cx="5.19148936" cy="5.5" rx="5.19148936" ry="5.5"></ellipse>
                    <ellipse id="Oval-Copy" cx="31.1489362" cy="5.5" rx="5.19148936" ry="5.5"></ellipse>
                    <ellipse id="Oval-Copy-2" cx="57.106383" cy="5.5" rx="5.19148936" ry="5.5"></ellipse>
                    <ellipse id="Oval-Copy-3" cx="83.0638298" cy="5.5" rx="5.19148936" ry="5.5"></ellipse>
                    <ellipse id="Oval-Copy-4" cx="109.021277" cy="5.5" rx="5.19148936" ry="5.5"></ellipse>
                    <ellipse id="Oval-Copy-5" cx="134.978723" cy="5.5" rx="5.19148936" ry="5.5"></ellipse>
                    <ellipse id="Oval-Copy-6" cx="160.93617" cy="5.5" rx="5.19148936" ry="5.5"></ellipse>
                    <ellipse id="Oval-Copy-7" cx="186.893617" cy="5.5" rx="5.19148936" ry="5.5"></ellipse>
                    <ellipse id="Oval-Copy-8" cx="212.851064" cy="5.5" rx="5.19148936" ry="5.5"></ellipse>
                    <ellipse id="Oval-Copy-9" cx="238.808511" cy="5.5" rx="5.19148936" ry="5.5"></ellipse>
                </g>
                <g id="Group-2-Copy-9" transform="translate(0.000000, 233.000000)">
                    <ellipse id="Oval" cx="5.19148936" cy="5.5" rx="5.19148936" ry="5.5"></ellipse>
                    <ellipse id="Oval-Copy" cx="31.1489362" cy="5.5" rx="5.19148936" ry="5.5"></ellipse>
                    <ellipse id="Oval-Copy-2" cx="57.106383" cy="5.5" rx="5.19148936" ry="5.5"></ellipse>
                    <ellipse id="Oval-Copy-3" cx="83.0638298" cy="5.5" rx="5.19148936" ry="5.5"></ellipse>
                    <ellipse id="Oval-Copy-4" cx="109.021277" cy="5.5" rx="5.19148936" ry="5.5"></ellipse>
                    <ellipse id="Oval-Copy-5" cx="134.978723" cy="5.5" rx="5.19148936" ry="5.5"></ellipse>
                    <ellipse id="Oval-Copy-6" cx="160.93617" cy="5.5" rx="5.19148936" ry="5.5"></ellipse>
                    <ellipse id="Oval-Copy-7" cx="186.893617" cy="5.5" rx="5.19148936" ry="5.5"></ellipse>
                    <ellipse id="Oval-Copy-8" cx="212.851064" cy="5.5" rx="5.19148936" ry="5.5"></ellipse>
                    <ellipse id="Oval-Copy-9" cx="238.808511" cy="5.5" rx="5.19148936" ry="5.5"></ellipse>
                </g>
            </g>
        </g>
    </g>
</svg>