<?xml version="1.0" encoding="UTF-8"?>
<svg width="29px" height="21px" viewBox="0 0 29 21" version="1.1" xmlns="http://www.w3.org/2000/svg" xmlns:xlink="http://www.w3.org/1999/xlink">
    <title>82DF6FF0-3CFB-4791-8FA5-36F3501EB58C</title>
    <g id="Page-1" stroke="none" stroke-width="1" fill="none" fill-rule="evenodd" stroke-linecap="round" stroke-linejoin="round">
        <g id="Landing-page" transform="translate(-756.000000, -5627.000000)" stroke="#333333" stroke-width="1.5">
            <g id="Group-12" transform="translate(-1.000000, 5237.000000)">
                <g id="Group-43-Copy" transform="translate(211.000000, 80.000000)">
                    <g id="Group-38" transform="translate(546.000000, 0.000000)">
                        <g id="Group-37" transform="translate(0.000000, 70.000000)">
                            <g id="Group-32" transform="translate(0.000000, 240.000000)">
                                <g id="Emails,-Letter,-Mail.1">
                                    <g id="Group" transform="translate(1.482117, 1.892704)">
                                        <path d="M23.0729614,17.9456366 L2.56366237,17.9456366 C1.14723891,17.9456366 0,16.7983977 0,15.3819742 L0,2.56366237 C0,1.14723891 1.14723891,0 2.56366237,0 L23.0729614,0 C24.4893848,0 25.6366237,1.14723891 25.6366237,2.56366237 L25.6366237,15.3819742 C25.6366237,16.7983977 24.4893848,17.9456366 23.0729614,17.9456366 Z" id="Path"></path>
                                        <path d="M25.6148326,2.5687897 L15.3678741,10.5879256 C13.9873419,11.6685093 12.0517768,11.6787639 10.6597082,10.6122804 L0.15125608,2.56366237" id="Path"></path>
                                        <line x1="17.2149928" y1="9.13945637" x2="24.90598" y2="16.0357082" id="Path"></line>
                                        <line x1="8.53699571" y1="8.98563662" x2="0.846008584" y2="16.0228898" id="Path"></line>
                                    </g>
                                </g>
                            </g>
                        </g>
                    </g>
                </g>
            </g>
        </g>
    </g>
</svg>