<?xml version="1.0" encoding="UTF-8"?>
<svg width="34px" height="34px" viewBox="0 0 34 34" version="1.1" xmlns="http://www.w3.org/2000/svg" xmlns:xlink="http://www.w3.org/1999/xlink">
    <title>30C94F4A-5AD4-47DB-8CA2-B9047A504967</title>
    <g id="Page-1" stroke="none" stroke-width="1" fill="none" fill-rule="evenodd">
        <g id="Landing-page" transform="translate(-274.000000, -5466.000000)">
            <g id="Group-12" transform="translate(-1.000000, 5237.000000)">
                <g id="Group-43-Copy" transform="translate(211.000000, 80.000000)">
                    <g id="Group-42">
                        <g id="Group-41" transform="translate(0.000000, 149.000000)">
                            <g id="Facebook" transform="translate(64.000000, 0.000000)">
                                <path d="M10.625,4.25 L23.3806667,4.25 C26.89825,4.25 29.75,7.10175 29.75,10.6193333 L29.75,23.3820833 C29.75,26.89825 26.89825,29.75 23.3806667,29.75 L10.6193333,29.75 C7.10175,29.75 4.25,26.89825 4.25,23.3806667 L4.25,10.625 C4.25,7.10458333 7.10458333,4.25 10.625,4.25 L10.625,4.25 Z" id="Path" stroke="#323232" stroke-width="2" stroke-linecap="round" stroke-linejoin="round"></path>
                                <line x1="18.275" y1="17" x2="18.275" y2="29.75" id="Path" stroke="#323232" stroke-width="2" stroke-linecap="round" stroke-linejoin="round"></line>
                                <g id="Group" stroke-linecap="round" stroke-linejoin="round" transform="translate(15.583333, 11.333333)" stroke="#323232" stroke-width="2">
                                    <line x1="0.141666667" y1="6.94166667" x2="7.79166667" y2="6.94166667" id="Path"></line>
                                    <path d="M2.69166667,5.66666667 L2.69166667,4.32791667 C2.69166667,2.25108333 4.37608333,0.566666667 6.45291667,0.566666667 L7.79166667,0.566666667" id="Path"></path>
                                </g>
                                <polygon id="Path" transform="translate(17.000000, 17.000000) rotate(-90.000000) translate(-17.000000, -17.000000) " points="-2.59514632e-15 3.0445426e-16 34 3.0445426e-16 34 34 -2.59514632e-15 34"></polygon>
                            </g>
                        </g>
                    </g>
                </g>
            </g>
        </g>
    </g>
</svg>