<?xml version="1.0" encoding="UTF-8"?>
<svg width="180px" height="150px" viewBox="0 0 180 150" version="1.1" xmlns="http://www.w3.org/2000/svg" xmlns:xlink="http://www.w3.org/1999/xlink">
    <title>EC78A3DE-87FB-4AB3-9541-A1284972EB8D</title>
    <defs>
        <filter x="-25.0%" y="-50.0%" width="150.0%" height="200.0%" filterUnits="objectBoundingBox" id="filter-1">
            <feGaussianBlur stdDeviation="10" in="SourceGraphic"></feGaussianBlur>
        </filter>
    </defs>
    <g id="Page-1" stroke="none" stroke-width="1" fill="none" fill-rule="evenodd">
        <g id="Landing-page" transform="translate(-842.000000, -1633.000000)">
            <g id="03-Feature-Copy" transform="translate(-146.000000, 1440.000000)">
                <g id="Card" transform="translate(543.000000, 193.000000)">
                    <g id="2" transform="translate(475.000000, 0.000000)">
                        <g id="icon">
                            <rect id="Shadow" fill="#F03E3D" opacity="0.848005022" filter="url(#filter-1)" x="0" y="60" width="120" height="60" rx="19"></rect>
                            <rect id="icon-bd" fill="#F03E3D" x="0" y="0" width="120" height="120" rx="19"></rect>
                            <g id="noun_Doctor_1181565" transform="translate(35.000000, 25.000000)" fill="#FFFFFF" fill-rule="nonzero">
                                <g id="Group" transform="translate(0.624617, 0.000000)">
                                    <path d="M13.3757592,7.64393104 C13.1606896,7.97885709 12.9949068,8.33506607 12.8660891,8.75848429 C13.0464339,8.45156209 13.2021353,8.18496543 13.3578367,7.91836878 C13.3712786,7.9250897 13.3836002,7.93181062 13.3959219,7.93853155 C13.3802398,8.01134156 13.3645576,8.08303142 13.3477553,8.15584143 C13.3443949,8.16928328 13.3410344,8.18384528 13.3387941,8.19728713 C12.8963332,10.1441148 12.7843178,12.1514308 12.9769843,14.1385841 L13.3847204,18.3302004 C13.4250459,18.7424171 13.4496893,19.1546338 13.4776932,19.5679706 C13.614352,21.6077711 14.4779907,23.5333158 16.094373,25.4207754 C16.1402993,25.4745427 16.1839853,25.5507132 16.2030279,25.6156822 C16.770946,27.4045681 17.6054608,28.8495668 18.7547388,30.0313293 C20.4831364,31.8078936 22.5352586,32.7465827 24.6915551,32.7477028 L24.6949156,32.7477028 C26.8422508,32.7477028 28.8854117,31.8157347 30.6059683,30.0514921 C31.7081999,28.9223768 32.523672,27.5423471 33.1027916,25.8318719 C33.1666404,25.6425659 33.287617,25.4319769 33.4332371,25.2538724 C35.1078673,23.2207929 35.9278201,21.1507482 35.9255798,18.9518859 C35.9255798,18.7995449 35.9255798,18.6460838 35.9278201,18.494863 L35.9603045,10.8845366 C35.9222193,10.6313818 35.8852542,10.3759867 35.8482891,10.116111 C35.8886147,10.2191651 35.9266999,10.3188588 35.9659053,10.4151921 C36.0353549,10.5910563 36.1014439,10.7590794 36.1608121,10.9282226 C36.2537849,11.1869782 36.3333158,11.4502144 36.4195677,11.7123304 C36.4262886,11.6630437 36.4184475,11.6171174 36.4094863,11.5734313 C36.2381027,10.7501181 36.036475,9.93576617 35.6735451,9.17182113 C35.6455413,9.11133281 35.6175374,9.05196465 35.5917739,8.99147633 C35.5906537,8.99035617 35.5906537,8.98923602 35.5906537,8.98923602 C35.5413669,8.87722062 35.4943205,8.76520522 35.4539949,8.65094951 C35.3341384,8.32498469 35.214282,7.99789971 35.0955456,7.67081474 C35.0059333,7.4232607 34.9152008,7.17346635 34.8255885,6.92591231 C34.8087862,6.88110615 34.7919839,6.83629999 34.7763017,6.79149383 C34.7942242,6.78141244 34.8132668,6.77133106 34.8311893,6.76124967 C35.1369913,7.24515621 35.4450337,7.72906275 35.7508357,8.21184913 C35.7037893,8.0494268 35.6455413,7.88812462 35.5805723,7.7301829 C35.3027741,7.05585018 34.9432047,6.43528485 34.4032905,5.93121554 C34.2901549,5.82592106 34.1871007,5.70942505 34.101969,5.58172749 C33.556454,4.76961582 32.9011639,4.07960095 32.0039205,3.66066334 C31.978157,3.64722149 31.9512733,3.6348998 31.9255098,3.62369826 C31.5132931,3.439993 31.0965958,3.26748928 30.6832589,3.09050494 C30.5790846,3.04681894 30.4760305,3.00089262 30.3718561,2.95608646 C30.5824451,2.97288877 30.7896736,2.99641201 30.9957819,3.02777632 C32.1685832,3.20252035 33.2764155,3.59569441 34.3506432,4.10424433 C34.3080774,4.06055833 34.262151,4.02919401 34.2151046,3.99670955 C32.9246871,3.12522972 31.4830489,2.68836965 29.9517984,2.50802485 C29.8924302,2.50130393 29.833062,2.49458301 29.774814,2.48898224 C29.2606633,2.43969546 28.742032,2.42177299 28.2514046,2.22462589 C28.0598582,2.14733526 27.8526297,2.10588956 27.651002,2.05324232 C27.41801,1.992754 27.1850179,1.93562615 26.9520259,1.87849829 C26.8960182,1.86393629 26.8400105,1.8516146 26.7840028,1.83705259 C26.7873633,1.80792859 26.7862431,1.81688982 26.7896036,1.78776582 L29.4387678,1.78776582 C29.4186051,1.73623873 29.3950818,1.72055658 29.3693183,1.71607596 C28.2166798,1.55029317 27.061801,1.42595607 25.8957207,1.53125055 C25.4969458,1.56709548 25.1015315,1.58501794 24.7049969,1.53013039 C24.5302529,1.505487 24.3510283,1.49876608 24.1751641,1.48420408 C24.1740439,1.45508007 24.1740439,1.46292115 24.1729238,1.43379715 C25.0376827,1.27249497 25.9024416,1.11119279 26.8164873,0.940929378 C25.8990811,0.963332458 25.0343222,1.02382078 24.1785245,1.17616172 C23.7013389,1.26017327 23.2342347,1.41363437 22.7548088,1.47524285 C22.0703947,1.56485517 21.3770193,1.6007001 20.6825238,1.65894811 C22.0524722,1.00589831 23.5187538,0.723619498 25.0130393,0.556716549 C24.7318806,0.564557627 24.4518421,0.552235932 24.1718036,0.566797935 C23.1367813,0.620565328 22.1096001,0.742662116 21.1070622,1.01709985 C20.2759079,1.24449112 19.4873195,1.56149471 18.807386,2.11373064 C18.6785683,2.21790496 18.5228669,2.29071497 18.3794872,2.37696683 C18.3649252,2.35568391 18.3503632,2.33328083 18.3358012,2.31087775 C18.647204,2.08572679 18.9485254,1.84153321 19.2744902,1.63766518 C19.607176,1.43043669 19.9577842,1.24785158 20.3117529,1.08094863 C20.65452,0.919646451 21.0129693,0.790828739 21.3635775,0.647449024 C20.6679618,0.82443336 19.9969896,1.06862694 19.3517809,1.38563052 C18.0714448,2.01403693 17.1092325,3.06250109 16.0025203,3.91941892 C16.00028,3.92165923 15.9980397,3.92389954 15.9957994,3.92613984 C15.9241096,4.04151571 15.8456988,4.15465126 15.7829702,4.2756279 C15.6899974,4.45373239 15.6183075,4.64527873 15.513013,4.81442198 C15.4648464,4.89171261 15.3606721,4.94548 15.2721799,4.98244509 C15.090715,5.05637525 14.8969283,5.10006126 14.7177037,5.17959219 C13.7644526,5.60749103 13.2021353,6.35351361 12.9646626,7.35829177 C13.1931741,6.90126892 13.4821738,6.49241271 13.9044719,6.12164173 C13.7902162,6.51481579 13.6950031,6.86430384 13.5841078,7.20819113 C13.5325807,7.36613284 13.462011,7.50951256 13.3757592,7.64393104 Z M15.6866369,18.4119716 L15.6967183,18.2865144 C15.7056795,18.1789796 15.7168811,18.0311193 15.7336834,17.9359062 C16.2668767,17.7589219 16.58164,17.2470115 16.5995624,16.5267524 C16.6118841,16.0137219 16.6152446,15.4950906 16.6197252,14.9943817 C16.6242058,14.4354249 16.6298066,13.8652665 16.6454888,13.2973484 C16.6454888,12.3452175 17.418395,11.5790321 18.363805,11.5790321 C18.3806073,11.5790321 18.3974096,11.5790321 18.414212,11.5801523 L19.2778507,11.6059158 C19.9891485,11.5476678 20.7060471,11.5555089 21.4207053,11.5454275 C22.0603133,11.5364663 22.7010414,11.5431872 23.3406493,11.5431872 L25.2269887,11.5431872 C25.9136431,11.5431872 26.6002975,11.5454275 27.286952,11.542067 C27.7943817,11.5398267 28.3018115,11.5319856 28.8081211,11.5297453 C29.2472215,11.5263849 29.6852017,11.5286252 30.1243021,11.527505 C30.5510808,11.5263849 30.9722587,11.5185438 31.3911963,11.6462414 C31.876223,11.7941017 32.2369126,12.079741 32.4463814,12.5266824 C32.5807999,12.8134418 32.6424083,13.1349261 32.734261,13.4306467 C32.7387416,13.4250459 32.7443423,13.418325 32.748823,13.4127242 C32.7622648,13.8999912 32.7622648,14.3973396 32.7611447,14.90925 C32.7600245,15.3539512 32.7589043,15.8143345 32.7689857,16.2735976 C32.7723462,16.3956944 32.771226,16.5189114 32.7701059,16.6510895 L32.7701059,16.9087249 C32.7701059,17.4217555 33.1375164,17.861976 33.6415857,17.9527085 C33.6617485,18.0479216 33.6751903,18.1800998 33.6807911,18.2338672 C33.8891398,20.1974972 33.2696946,21.9830227 31.7294828,23.8525597 C31.4124792,24.2390129 31.163805,24.6781132 31.0125842,25.1239345 C30.5421195,26.5151658 29.8924302,27.6229982 29.0265512,28.5124005 C27.7316531,29.8409031 26.232887,30.5432397 24.6937954,30.5432397 L24.6904349,30.5432397 C23.1423821,30.5421195 21.6357749,29.833062 20.3319156,28.4933578 C19.4279513,27.56363 18.7637,26.4042706 18.3010764,24.9491905 C18.1924215,24.6041831 18.0019953,24.2625361 17.7645226,23.9869782 C16.1839853,22.1364838 15.5219743,20.3655203 15.6866369,18.4119716 Z" id="Shape"></path>
                                    <g transform="translate(0.000000, 33.604621)">
                                        <path d="M48.7625448,29.8801085 L47.578542,15.6608734 L47.5751816,15.6317494 C46.7720312,8.9970771 42.9063796,4.91971646 36.0857618,3.51168286 C35.7049094,3.43215192 35.1392316,3.03225694 34.5657128,2.45761792 C34.0201978,1.90986261 33.4668417,1.20192526 33.069187,0.464863919 L31.5020915,2.48898224 L26.4221931,10.4241533 L26.1432747,7.03008664 L26.1432747,7.02784633 L26.0861468,6.62123042 L27.1424521,5.56492518 L27.1424521,5.56268487 L27.3250372,5.38121992 C27.8559902,4.85026691 27.948963,4.00903124 27.5177037,3.39294653 C27.0864444,2.77686182 26.370666,2.37584668 25.5630349,2.37584668 L23.7282226,2.37584668 C22.9194714,2.37584668 22.2059333,2.77686182 21.774674,3.39294653 C21.3422946,4.00903124 21.4341472,4.85026691 21.9651002,5.38121992 L23.2039905,6.62011027 L23.1692658,6.87774569 L22.8713048,10.4331146 L17.7880459,2.48786208 L16.2209504,0.463743765 C15.8232957,1.19968496 15.2699396,1.90874245 14.7221843,2.45649777 C14.1509057,3.03225694 13.5841078,3.43103177 13.2032554,3.5105627 C12.1391091,3.73123304 11.1477728,4.01351186 10.2303667,4.36299991 C9.61652227,4.59599195 9.03404218,4.85698784 8.48628686,5.14710773 C4.57918964,7.20931128 2.30751728,10.7187538 1.71383565,15.6295091 L0.517511158,30.0649339 L0.514150696,30.116461 C0.449181762,31.3766343 0.843475978,31.9848779 2.0196377,32.4374201 C2.30303667,32.5460751 2.67828826,32.6894548 3.0647414,32.8149121 C5.92113416,33.752481 9.05644526,34.3540037 12.6487792,34.6519646 C15.5959044,34.8995187 18.5508707,35.0574604 20.7105277,35.1717161 C21.4711123,35.2120417 22.1353636,35.2478866 22.6674368,35.2792509 L22.7100026,35.2826114 L22.7503282,35.2826114 C29.3950818,35.2254835 34.5522709,35.0361775 39.716181,34.2778332 C42.7495581,33.8342522 45.0245909,33.2864969 47.0991161,32.5057495 C48.4825063,31.9882384 48.8689595,31.374394 48.7625448,29.8801085 Z M46.2522797,30.2576004 C44.3468977,30.9756191 42.2230857,31.4819288 39.3678131,31.9019865 C34.3495231,32.6379277 29.294268,32.8227531 22.7716111,32.8787608 C22.2428984,32.8473965 21.5876083,32.8126717 20.8382253,32.7734664 C18.6942505,32.6592106 15.7605671,32.5035092 12.8492868,32.2593157 C9.44625886,31.9759167 6.49129255,31.4124792 3.81300429,30.5320382 C3.49152008,30.428984 3.17115603,30.3080074 2.91912138,30.210554 L4.10312418,15.9061871 C4.56574779,12.1200665 6.16420758,9.39137131 8.95675155,7.65849304 C9.06204603,8.15472127 9.15837928,8.55237595 9.21774744,8.75960445 C9.29951868,9.0385228 9.39585193,9.3331233 9.49554564,9.64340597 L9.50338672,9.66580905 C9.66804936,10.1721187 9.86967708,10.7904437 10.0567428,11.5028616 C7.66521397,12.618535 6.26278113,14.8599632 6.45880809,15.9162685 C5.42826639,17.3735889 4.97572416,19.1501531 5.14598757,21.0622561 C5.18519296,21.4935154 5.40810361,21.8799685 5.75423121,22.1208016 C5.78559552,22.3168286 5.82032029,22.501654 5.85952568,22.6853592 C6.26614159,24.5537761 7.12866019,26.2261661 8.2880196,27.3933666 C8.92202678,28.0296141 9.6232432,28.4866369 10.3748665,28.7532336 C10.5540912,29.5082174 11.2810711,29.9887635 12.0102914,29.8319419 C12.7451125,29.6706397 13.7487705,28.8260436 13.5751466,28.0307342 C13.4026429,27.2331846 12.137989,26.880336 11.4031679,27.0416382 C11.2037805,27.0842041 11.0189551,27.1726962 10.8576529,27.3026341 C9.02060033,26.6585456 7.76266737,24.3835127 7.32468714,22.3694758 C7.30788483,22.2865844 7.29108252,22.2048132 7.27652052,22.1230419 C7.66633412,21.8418833 7.89036493,21.3557364 7.84443861,20.8527873 C7.59688457,18.0927278 9.2356699,16.1156559 12.4594732,15.2867419 L12.4740352,15.2833815 L12.4885972,15.2811412 C15.9823576,14.494793 18.5351886,15.6048657 19.4951606,18.3290802 C19.6631837,18.8062659 20.0709198,19.1557539 20.5402643,19.2487267 C20.5604271,19.3304979 20.5805898,19.411149 20.5973921,19.4929203 C21.0353724,21.5091975 20.8382253,24.1012339 19.432432,25.4487792 C19.2341647,25.3972521 19.0291765,25.3927715 18.8297891,25.4353374 C18.0938479,25.5966395 17.0913101,26.4412357 17.2626936,27.236545 C17.4363175,28.0340947 18.6998512,28.3858231 19.4357924,28.225641 C20.1627724,28.0688195 20.6231557,27.3283977 20.473055,26.5678131 C21.0465739,26.0133368 21.4946355,25.3065196 21.8071585,24.4630437 C22.378437,22.9205916 22.4691695,21.0432134 22.0625536,19.1725562 C22.0233482,18.9910913 21.9774219,18.8040256 21.9258948,18.6135994 C21.970701,18.5374289 22.0076661,18.4567778 22.0390304,18.3727663 C22.1499256,18.0624836 22.1499256,17.716356 22.0390304,17.3993524 C21.3803798,15.5331758 20.1795747,14.0736151 18.5654327,13.1797322 C18.4915026,13.1394067 18.4153321,13.1002013 18.3436423,13.0654765 C18.3245996,13.054275 18.3044369,13.0430734 18.2842741,13.0341122 C17.8843791,12.3048919 16.5995624,11.3650827 14.8711648,10.9775094 C14.0993787,10.8442111 12.9232169,10.7613197 11.9598845,10.9114203 C11.7616172,10.1653977 11.5532686,9.52354949 11.3998075,9.05084449 C11.3169161,8.79768968 11.2351448,8.57141857 11.163455,8.36979085 C11.1354511,8.2880196 10.9651877,7.55991949 10.7770018,6.73772644 C11.6596832,6.37703684 12.6308567,6.08691695 13.6905224,5.86848692 C14.5508007,5.69262274 15.4234007,5.10790234 16.2030279,4.36860068 L22.5677431,13.9907237 L22.5587818,14.0590531 L22.6125492,14.0590531 L23.6722149,15.6608734 C24.1348385,16.3598495 25.1597795,16.3598495 25.6224031,15.6608734 L26.6820688,14.0590531 L26.7335959,14.0590531 L26.7335959,14.0131268 L26.7279951,14.0131268 L26.7246346,13.992964 L33.0915901,4.36860068 C33.8700971,5.10902249 34.7438173,5.69262274 35.6040956,5.86848692 C35.9603045,5.94241708 36.3064321,6.02418833 36.6435985,6.11380065 C36.734331,6.26278113 36.8284239,6.42408331 36.9292378,6.6021878 C37.1846329,7.05473003 37.3392141,7.64953181 37.3873808,8.36643038 C37.4747528,9.60644089 37.229439,11.2553076 36.713048,12.9332983 C33.9070622,12.2085587 30.9935416,13.8170999 30.1355036,16.6130043 C29.2517021,19.4895598 30.8714448,22.5475803 33.7468802,23.4313818 C36.6223156,24.3151833 39.6814562,22.6954406 40.5663779,19.8177649 C41.250792,17.5897786 40.4129168,15.1411219 38.5299379,13.7868557 C38.9096701,12.5625273 39.1673055,10.9427846 39.2065109,9.49330533 C39.2266737,8.72824013 39.1919489,7.82091538 39.0216855,6.95391616 C42.6319419,8.6072635 44.6605408,11.5611097 45.1903737,15.9061871 L46.3687757,30.0682944 C46.3721362,30.1243021 46.3743765,30.1713486 46.3777369,30.2127943 C46.3385315,30.2262361 46.298206,30.2407981 46.2522797,30.2576004 Z M39.1381815,19.3775444 C38.4952131,21.468872 36.2717074,22.647274 34.1815,22.0054257 C32.0912926,21.3635775 30.9128905,19.1400718 31.5558589,17.047624 C32.1977072,14.9574166 34.4212129,13.7790146 36.5114203,14.421983 C38.6016277,15.0638313 39.7800298,17.2884572 39.1381815,19.3775444 Z" id="Shape"></path>
                                        <circle id="Oval" transform="translate(35.346278, 18.211506) rotate(-72.920440) translate(-35.346278, -18.211506) " cx="35.3462781" cy="18.2115061" r="2.35008842"></circle>
                                    </g>
                                </g>
                            </g>
                        </g>
                    </g>
                </g>
            </g>
        </g>
    </g>
</svg>