<?xml version="1.0" encoding="UTF-8"?>
<svg width="180px" height="150px" viewBox="0 0 180 150" version="1.1" xmlns="http://www.w3.org/2000/svg" xmlns:xlink="http://www.w3.org/1999/xlink">
    <title>8D35DBFD-FA76-4830-82A9-50858F4AD154</title>
    <defs>
        <filter x="-25.0%" y="-50.0%" width="150.0%" height="200.0%" filterUnits="objectBoundingBox" id="filter-1">
            <feGaussianBlur stdDeviation="10" in="SourceGraphic"></feGaussianBlur>
        </filter>
    </defs>
    <g id="Page-1" stroke="none" stroke-width="1" fill="none" fill-rule="evenodd">
        <g id="Landing-page" transform="translate(-1326.000000, -1633.000000)">
            <g id="03-Feature-Copy" transform="translate(-146.000000, 1440.000000)">
                <g id="Card" transform="translate(543.000000, 193.000000)">
                    <g id="1" transform="translate(959.000000, 0.000000)">
                        <g id="icon">
                            <rect id="Shadow" fill="#4DADF7" opacity="0.848005022" filter="url(#filter-1)" x="0" y="60" width="120" height="60" rx="19"></rect>
                            <rect id="icon-bd" fill="#4DADF7" x="0" y="0" width="120" height="120" rx="19"></rect>
                            <g id="noun_result_2952620" transform="translate(33.000000, 26.000000)" fill="#FFFFFF" fill-rule="nonzero">
                                <g id="Group" transform="translate(0.830273, 0.000000)">
                                    <path d="M3.82165188,53.220041 L3.82165188,13.9419522 L7.78484642,13.9419522 L7.78484642,10.1910717 L3.60933788,10.1910717 C1.62774061,10.1910717 1.25715138e-15,11.8188123 1.25715138e-15,13.8004096 L1.25715138e-15,53.4323549 C1.25715138e-15,55.4139522 1.62774061,57.0416928 3.60933788,57.0416928 L21.6560273,57.0416928 C21.160628,55.9093515 20.736,54.6354676 20.523686,53.2908123 L3.82165188,53.2908123 L3.82165188,53.220041 Z" id="Path"></path>
                                    <path d="M40.41043,36.4472355 C41.7550853,36.9426348 43.0289693,37.5795768 44.1613106,38.3580614 L44.1613106,13.8004096 C44.1613106,11.8188123 42.53357,10.1910717 40.5519727,10.1910717 L36.1641502,10.1910717 L36.1641502,13.9419522 L40.41043,13.9419522 L40.41043,36.4472355 Z" id="Path"></path>
                                    <path d="M11.6064983,25.9023072 L32.5548123,25.9023072 C33.1209829,25.9023072 33.6163823,25.4069078 33.6163823,24.8407372 L33.6163823,23.1422253 C33.6163823,22.5760546 33.1209829,22.0806553 32.5548123,22.0806553 L11.6064983,22.0806553 C11.0403276,22.0806553 10.5449283,22.5760546 10.5449283,23.1422253 L10.5449283,24.8407372 C10.6156997,25.4069078 11.0403276,25.9023072 11.6064983,25.9023072 Z" id="Path"></path>
                                    <path d="M11.6064983,35.4564369 L32.5548123,35.4564369 C33.1209829,35.4564369 33.6163823,34.9610375 33.6163823,34.3948669 L33.6163823,32.6963549 C33.6163823,32.1301843 33.1209829,31.634785 32.5548123,31.634785 L11.6064983,31.634785 C11.0403276,31.634785 10.5449283,32.1301843 10.5449283,32.6963549 L10.5449283,34.3948669 C10.6156997,35.0318089 11.0403276,35.4564369 11.6064983,35.4564369 Z" id="Path"></path>
                                    <path d="M10.6156997,42.321256 L10.6156997,44.0197679 C10.6156997,44.5859386 11.111099,45.0813379 11.6772696,45.0813379 L21.4437133,45.0813379 C22.009884,43.7366826 22.7883686,42.4627986 23.6376246,41.3304573 L11.6064983,41.3304573 C11.0403276,41.259686 10.6156997,41.7550853 10.6156997,42.321256 Z" id="Path"></path>
                                    <path d="M12.0311263,15.2158362 L31.9886416,15.2158362 C32.7671263,15.2158362 33.4040683,14.5788942 33.4040683,13.8004096 L33.4040683,8.13870307 C33.4040683,7.36021843 32.7671263,6.72327645 31.9886416,6.72327645 L28.6623891,6.72327645 C28.5208464,3.1847099 25.5484505,0.353856655 22.009884,0.353856655 C18.4713174,0.353856655 15.4989215,3.1847099 15.3573788,6.72327645 L12.0311263,6.72327645 C11.2526416,6.72327645 10.6156997,7.36021843 10.6156997,8.13870307 L10.6156997,13.8004096 C10.6156997,14.5788942 11.2526416,15.2158362 12.0311263,15.2158362 Z M22.009884,4.52936519 C23.4253106,4.52936519 24.5576519,5.66170648 24.5576519,7.07713311 C24.5576519,8.49255973 23.4253106,9.62490102 22.009884,9.62490102 C20.5944573,9.62490102 19.462116,8.49255973 19.462116,7.07713311 C19.462116,5.66170648 20.5944573,4.52936519 22.009884,4.52936519 Z" id="Shape"></path>
                                    <path d="M51.096901,61.7126007 L45.0813379,56.8293788 C46.2136792,55.0600956 46.8506212,52.9369556 46.8506212,50.7430444 C46.8506212,44.4443959 41.7550853,39.3488601 35.4564369,39.3488601 C29.1577884,39.3488601 24.0622526,44.4443959 24.0622526,50.7430444 C24.0622526,57.0416928 29.1577884,62.1372287 35.4564369,62.1372287 C37.7211195,62.1372287 39.7734881,61.5002867 41.5427713,60.3679454 L46.4259932,66.3835085 C46.5675358,66.5250512 46.7090785,66.7373652 46.9213925,66.8789078 C48.3368191,68.0112491 50.3891877,67.7989352 51.521529,66.3835085 C52.7246416,64.9680819 52.5123276,62.9157133 51.096901,61.7126007 Z M27.8131331,50.7430444 C27.8131331,46.4967645 31.2809283,43.0997406 35.4564369,43.0997406 C39.7027167,43.0997406 43.0997406,46.5675358 43.0997406,50.7430444 C43.0997406,54.9893242 39.6319454,58.3863481 35.4564369,58.3863481 C31.2809283,58.3863481 27.8131331,54.9893242 27.8131331,50.7430444 Z" id="Shape"></path>
                                </g>
                            </g>
                        </g>
                    </g>
                </g>
            </g>
        </g>
    </g>
</svg>