<?xml version="1.0" encoding="UTF-8"?>
<svg width="180px" height="150px" viewBox="0 0 180 150" version="1.1" xmlns="http://www.w3.org/2000/svg" xmlns:xlink="http://www.w3.org/1999/xlink">
    <title>F8B80657-651C-40DE-84FE-7CBA05384BD3</title>
    <defs>
        <filter x="-25.0%" y="-50.0%" width="150.0%" height="200.0%" filterUnits="objectBoundingBox" id="filter-1">
            <feGaussianBlur stdDeviation="10" in="SourceGraphic"></feGaussianBlur>
        </filter>
    </defs>
    <g id="Page-1" stroke="none" stroke-width="1" fill="none" fill-rule="evenodd">
        <g id="Landing-page" transform="translate(-367.000000, -1633.000000)">
            <g id="03-Feature-Copy" transform="translate(-146.000000, 1440.000000)">
                <g id="Card" transform="translate(543.000000, 193.000000)">
                    <g id="3">
                        <g id="icon">
                            <rect id="Shadow" fill="#00D96D" opacity="0.848005022" filter="url(#filter-1)" x="0" y="60" width="120" height="60" rx="19"></rect>
                            <rect id="icon-bd" fill="#00D96D" x="0" y="0" width="120" height="120" rx="19"></rect>
                            <g id="noun_User-Analysis_197780" transform="translate(30.000000, 30.000000)" fill="#FFFFFF" stroke="#FFFFFF" stroke-width="1.4">
                                <g id="Group">
                                    <path d="M44.9053625,28.937768 C36.5969243,28.937768 29.8509333,35.6856856 29.8509333,43.9949497 C29.8509333,52.3042138 36.5969243,59.0522028 44.9053625,59.0522028 C53.2138007,59.0522028 59.9611858,52.3042138 59.9611858,43.9949497 C59.9611858,35.6856856 53.2138007,28.937768 44.9053625,28.937768 Z M44.9053625,30.0085034 C52.6350696,30.0085034 58.8904504,36.264311 58.8904504,43.9949497 C58.8904504,51.7255883 52.6350696,57.9814674 44.9053625,57.9814674 C37.1756554,57.9814674 30.9216687,51.7255883 30.9216687,43.9949497 C30.9216687,36.264311 37.1756554,30.0085034 44.9053625,30.0085034 Z" id="Shape" fill-rule="nonzero"></path>
                                    <path d="M23.3777242,0.00557496264 C17.1183561,-0.141679716 10.8861653,2.28427848 6.32821361,7.0517995 C-0.964503228,14.679826 -2.07897702,26.3205122 3.63464507,35.1934328 C9.34826367,44.0664034 20.4073013,47.8685137 30.368177,44.3839122 C30.5487345,44.3206541 30.6818287,44.165875 30.7173243,43.9778786 C30.7528199,43.7898822 30.6853243,43.5972297 30.5402624,43.4724914 C30.3952006,43.3477532 30.1946108,43.3098798 30.0140534,43.3731379 C20.5151144,46.6961297 9.98398929,43.0750452 4.53528992,34.6134511 C-0.913413085,26.1519356 0.147426211,15.0664329 7.10198773,7.79211314 C14.0565537,0.517786254 25.0834736,-1.0395842 33.7797522,4.02501595 C42.4760158,9.0896161 46.5637347,19.4489246 43.6701128,29.0883134 C43.5850372,29.371669 43.7457748,29.6703416 44.0291304,29.7554173 C44.3124861,29.8404929 44.6111586,29.6797553 44.6962343,29.3963997 C47.7305359,19.2883999 43.4370537,8.41016306 34.3179081,3.09927948 C30.8982232,1.10769725 27.1333453,0.0939320529 23.3777242,0.00557496264 Z" id="Path" fill-rule="nonzero"></path>
                                    <path d="M17.6076322,14.8639497 C17.6076322,15.8689809 17.2084291,16.8328488 16.4978417,17.5435134 C15.7872544,18.254178 14.823491,18.6534252 13.8185685,18.6534252 C12.8136459,18.6534252 11.8498823,18.2541783 11.1392948,17.5435137 C10.4287074,16.8328491 10.0295041,15.868981 10.0295041,14.8639497 C10.0295041,13.8589183 10.4287074,12.8950503 11.1392948,12.1843857 C11.8498823,11.4737211 12.8136459,11.0744741 13.8185685,11.0744741 C14.823491,11.0744741 15.7872544,11.4737214 16.4978417,12.1843859 C17.2084291,12.8950505 17.6076322,13.8589184 17.6076322,14.8639497 L17.6076322,14.8639497 Z" id="Path" fill-rule="nonzero"></path>
                                    <path d="M35.6328348,14.8639497 C35.6328348,15.8689809 35.2336317,16.8328488 34.5230443,17.5435134 C33.812457,18.254178 32.8486936,18.6534252 31.8437711,18.6534252 C30.8388487,18.6534252 29.8750852,18.254178 29.1644979,17.5435134 C28.4539106,16.8328488 28.0547074,15.8689809 28.0547074,14.8639497 C28.0547074,13.8589184 28.4539106,12.8950505 29.1644979,12.1843859 C29.8750852,11.4737214 30.8388487,11.0744741 31.8437711,11.0744741 C32.8486936,11.0744741 33.812457,11.4737214 34.5230443,12.1843859 C35.2336317,12.8950505 35.6328348,13.8589184 35.6328348,14.8639497 L35.6328348,14.8639497 Z" id="Path" fill-rule="nonzero"></path>
                                    <path d="M10.3406834,26.7948765 C10.1519646,26.7903598 9.97481234,26.8855551 9.87442913,27.0454251 C9.77404591,27.2052951 9.76526708,27.406213 9.85132374,27.5742292 C12.2723537,32.4585603 17.2519375,35.5526289 22.7029382,35.5601364 C28.1539375,35.5672623 33.1424112,32.4867563 35.5768589,27.6090781 C35.6676961,27.4373395 35.6583752,27.2298699 35.5525036,27.0669689 C35.446632,26.9040679 35.2608242,26.8112995 35.0669958,26.8245691 C34.8731674,26.8378387 34.7017358,26.9550638 34.6190525,27.1308733 C32.3650401,31.6470142 27.751216,34.4963127 22.7043323,34.4893886 C17.6574478,34.4822503 13.0521132,31.6211024 10.8105243,27.0988084 C10.7235235,26.9172074 10.5419892,26.799776 10.3406834,26.7948765 L10.3406834,26.7948765 Z" id="Path" fill-rule="nonzero"></path>
                                    <path d="M39.9880656,38.9215196 C39.8232773,38.9309291 39.6720395,39.0158165 39.5781745,39.1515849 L37.5566038,42.0751924 L35.196246,42.0751924 C35.0031732,42.0724619 34.8235865,42.173901 34.7262532,42.3406667 C34.62892,42.5074325 34.62892,42.7136878 34.7262532,42.8804535 C34.8235865,43.0472193 35.0031732,43.1486584 35.196246,43.1459279 L37.8368353,43.1459279 C38.0125437,43.1461747 38.1771905,43.0601949 38.2773986,42.9158625 L39.8556177,40.6335542 L42.611925,48.7073278 C42.6869566,48.9282965 42.8964618,49.0752189 43.1297738,49.0704863 C43.3630858,49.0657538 43.5664607,48.9104565 43.6324701,48.686627 L45.7599993,41.5302594 L47.8861337,48.686627 C47.9498631,48.9015671 48.1407548,49.0540447 48.3644642,49.0687006 C48.5881736,49.0833565 48.797327,48.9570871 48.8885541,48.7522987 L51.3883309,43.1462848 L53.6817685,43.1462848 C53.8748413,43.1490153 54.054428,43.0475762 54.1517613,42.8808104 C54.2490945,42.7140447 54.2490945,42.5077894 54.1517613,42.3410236 C54.054428,42.1742579 53.8748413,42.0728188 53.6817685,42.0755493 L51.0411785,42.0755493 C50.8295787,42.0754979 50.6377974,42.2000703 50.5518189,42.393415 L48.50097,46.9927948 L46.27306,39.4976466 C46.2061467,39.2696219 45.996942,39.1129863 45.7593022,39.1129863 C45.5216625,39.1129863 45.3124577,39.2696219 45.2455444,39.4976466 L43.0831606,46.7739365 L40.5248274,39.2829285 C40.4470494,39.0558784 40.227685,38.9083232 39.9880656,38.9218765 L39.9880656,38.9215196 Z" id="Path"></path>
                                    <path d="M52.3280134,39.6548306 C52.1101228,39.6497331 51.9108874,39.77722 51.8242207,39.9771979 C51.7375539,40.1771758 51.7807541,40.4097299 51.9334581,40.5652413 L53.8853196,42.6105601 L51.9334581,44.6571639 C51.8014421,44.7956317 51.7533301,44.994013 51.807247,45.1775737 C51.8611639,45.3611344 52.0089175,45.5019846 52.1948462,45.5470632 C52.3807749,45.5921418 52.5766289,45.5345997 52.7086263,45.3961141 L55.0132166,42.9799639 C55.2103862,42.7731319 55.2103862,42.447917 55.0132166,42.241085 L52.7086263,39.8249348 C52.6099469,39.7191407 52.4726553,39.6577821 52.3280134,39.6548306 L52.3280134,39.6548306 Z" id="Path"></path>
                                </g>
                            </g>
                        </g>
                    </g>
                </g>
            </g>
        </g>
    </g>
</svg>