<?xml version="1.0" encoding="UTF-8"?>
<svg width="34px" height="34px" viewBox="0 0 34 34" version="1.1" xmlns="http://www.w3.org/2000/svg" xmlns:xlink="http://www.w3.org/1999/xlink">
    <title>4A15AA5F-095A-4029-8B9F-7BFEAEA68367</title>
    <g id="Page-1" stroke="none" stroke-width="1" fill="none" fill-rule="evenodd">
        <g id="Landing-page" transform="translate(-210.000000, -5466.000000)">
            <g id="Group-12" transform="translate(-1.000000, 5237.000000)">
                <g id="Group-43-Copy" transform="translate(211.000000, 80.000000)">
                    <g id="Group-42">
                        <g id="Group-41" transform="translate(0.000000, 149.000000)">
                            <g id="Linkedin">
                                <path d="M10.625,4.25 L23.3806667,4.25 C26.89825,4.25 29.75,7.10175 29.75,10.6193333 L29.75,23.3820833 C29.75,26.89825 26.89825,29.75 23.3806667,29.75 L10.6193333,29.75 C7.10175,29.75 4.25,26.89825 4.25,23.3806667 L4.25,10.625 C4.25,7.10458333 7.10458333,4.25 10.625,4.25 L10.625,4.25 Z" id="Path" stroke="#323232" stroke-width="2" stroke-linecap="round" stroke-linejoin="round"></path>
                                <line x1="11.5033333" y1="15.725" x2="11.5033333" y2="23.375" id="Path" stroke="#323232" stroke-width="2" stroke-linecap="round" stroke-linejoin="round"></line>
                                <g id="Group" stroke-linecap="round" stroke-linejoin="round" transform="translate(9.916667, 9.916667)" stroke="#323232" stroke-width="2">
                                    <path d="M6.68525,13.4583333 L6.68525,8.99583333 C6.68525,7.23491667 8.11183333,5.80833333 9.87275,5.80833333 L9.87275,5.80833333 C11.6336667,5.80833333 13.06025,7.23491667 13.06025,8.99583333 L13.06025,13.4583333" id="Path"></path>
                                    <path d="M1.58383333,1.18716667 C1.40816667,1.18716667 1.26508333,1.33025 1.2665,1.50591667 C1.2665,1.68158333 1.40958333,1.82466667 1.58525,1.82466667 C1.76091667,1.82466667 1.904,1.68158333 1.904,1.50591667 C1.904,1.32883333 1.76091667,1.18716667 1.58383333,1.18716667" id="Path"></path>
                                </g>
                                <polygon id="Path" transform="translate(17.000000, 17.000000) rotate(-90.000000) translate(-17.000000, -17.000000) " points="-2.59514632e-15 4.17037769e-13 34 4.17037769e-13 34 34 -2.59514632e-15 34"></polygon>
                            </g>
                        </g>
                    </g>
                </g>
            </g>
        </g>
    </g>
</svg>