<?xml version="1.0" encoding="UTF-8"?>
<svg width="28px" height="28px" viewBox="0 0 28 28" version="1.1" xmlns="http://www.w3.org/2000/svg" xmlns:xlink="http://www.w3.org/1999/xlink">
    <title>F9B64C38-3B2D-4B42-B970-2D7650FBB2E7</title>
    <g id="Page-1" stroke="none" stroke-width="1" fill="none" fill-rule="evenodd">
        <g id="Landing-page" transform="translate(-756.000000, -5535.000000)">
            <g id="Group-12" transform="translate(-1.000000, 5237.000000)">
                <g id="Group-43-Copy" transform="translate(211.000000, 80.000000)">
                    <g id="Group-38" transform="translate(546.000000, 0.000000)">
                        <g id="Group-37" transform="translate(0.000000, 70.000000)">
                            <g id="Group-34" transform="translate(0.000000, 148.000000)">
                                <g id="Phone,-Call.1">
                                    <g id="Group" stroke-linecap="round" stroke-linejoin="round" transform="translate(3.500000, 2.333333)" stroke="#333333" stroke-width="1.5">
                                        <path d="M19.6061404,17.9421053 L18.165614,16.5015789 C17.4459649,15.7819298 16.2792982,15.7819298 15.5608772,16.5015789 L14.4285965,17.6338596 C14.175614,17.8868421 13.7924561,17.9715789 13.4657895,17.8278947 C11.8250877,17.1094737 10.2040351,16.0201754 8.75859649,14.5747368 C7.31929825,13.1354386 6.23368421,11.5217544 5.51403509,9.88719298 C5.36421053,9.54947368 5.45140351,9.15280702 5.71298246,8.89122807 L6.72736842,7.87684211 C7.55140351,7.05280702 7.55140351,5.88736842 6.83175439,5.1677193 L5.39122807,3.72719298 C4.43210526,2.76807018 2.87736842,2.76807018 1.91824561,3.72719298 L1.11754386,4.52666667 C0.20754386,5.43666667 -0.171929825,6.74947368 0.0736842105,8.05122807 C0.680350877,11.2601754 2.5445614,14.7736842 5.55210526,17.7812281 C8.55964912,20.7887719 12.0731579,22.6529825 15.2821053,23.2596491 C16.5838596,23.5052632 17.8966667,23.1257895 18.8066667,22.2157895 L19.6061404,21.4163158 C20.5652632,20.457193 20.5652632,18.9024561 19.6061404,17.9421053 L19.6061404,17.9421053 Z" id="Path"></path>
                                        <path d="M12.2807018,6.12929825 C13.5468421,6.11210526 14.8191228,6.58122807 15.785614,7.5477193" id="Path"></path>
                                        <path d="M19.2585965,4.07473684 C17.3317544,2.14789474 14.805614,1.18385965 12.2807018,1.18385965" id="Path"></path>
                                        <path d="M17.2040351,11.0526316 C17.2212281,9.78649123 16.7521053,8.51421053 15.785614,7.5477193" id="Path"></path>
                                        <path d="M19.2585965,4.07473684 C21.1854386,6.00157895 22.1494737,8.5277193 22.1494737,11.0526316" id="Path"></path>
                                    </g>
                                    <polygon id="Path" points="0 0 28 0 28 28 0 28"></polygon>
                                </g>
                            </g>
                        </g>
                    </g>
                </g>
            </g>
        </g>
    </g>
</svg>