<?xml version="1.0" encoding="UTF-8"?>
<svg width="26px" height="32px" viewBox="0 0 26 32" version="1.1" xmlns="http://www.w3.org/2000/svg" xmlns:xlink="http://www.w3.org/1999/xlink">
    <title>06C32C15-78D4-4BD1-8717-C79F23A254B0</title>
    <g id="Page-1" stroke="none" stroke-width="1" fill="none" fill-rule="evenodd" stroke-linecap="round" stroke-linejoin="round">
        <g id="Landing-page" transform="translate(-755.000000, -5386.000000)" stroke="#333333" stroke-width="1.5">
            <g id="Group-12" transform="translate(-1.000000, 5237.000000)">
                <g id="Group-43-Copy" transform="translate(211.000000, 80.000000)">
                    <g id="Group-38" transform="translate(546.000000, 0.000000)">
                        <g id="Group-37" transform="translate(0.000000, 70.000000)">
                            <g id="Group-36">
                                <g id="Pin,-Location.1">
                                    <g id="Group" transform="translate(0.649908, 0.686695)">
                                        <path d="M0,10.9871245 C0,19.2274678 10.9871245,28.2526058 10.9871245,28.2526058" id="Path"></path>
                                        <path d="M10.9871245,28.2526058 C10.9871245,28.2526058 21.9742489,19.2274678 21.9742489,10.9871245" id="Path"></path>
                                        <path d="M10.9871245,15.6958921 L10.9871245,15.6958921 C8.38631514,15.6958921 6.27835684,13.5879338 6.27835684,10.9871245 L6.27835684,10.9871245 C6.27835684,8.38631514 8.38631514,6.27835684 10.9871245,6.27835684 L10.9871245,6.27835684 C13.5879338,6.27835684 15.6958921,8.38631514 15.6958921,10.9871245 L15.6958921,10.9871245 C15.6958921,13.5879338 13.5879338,15.6958921 10.9871245,15.6958921 Z" id="Path"></path>
                                        <path d="M0,10.9871245 C0,4.91909258 4.91909258,0 10.9871245,0 C17.0551563,0 21.9742489,4.91909258 21.9742489,10.9871245" id="Path"></path>
                                    </g>
                                </g>
                            </g>
                        </g>
                    </g>
                </g>
            </g>
        </g>
    </g>
</svg>