<?xml version="1.0" encoding="UTF-8"?>
<svg width="60px" height="61px" viewBox="0 0 60 61" version="1.1" xmlns="http://www.w3.org/2000/svg" xmlns:xlink="http://www.w3.org/1999/xlink">
    <title>FA21DEFE-532C-47EE-9E04-1F2112A30383</title>
    <g id="Page-1" stroke="none" stroke-width="1" fill="none" fill-rule="evenodd">
        <g id="Landing-page" transform="translate(-851.000000, -4024.000000)">
            <g id="Group-11" transform="translate(0.000000, 3564.000000)">
                <g id="Group-10" transform="translate(0.000000, 29.000000)">
                    <g id="Group-9" transform="translate(851.000000, 431.215686)">
                        <g id="Quote">
                            <g id="Group" stroke-linecap="round" stroke-linejoin="round" transform="translate(8.000000, 12.000000)" stroke="#FFFFFF" stroke-width="2">
                                <path d="M9.9677113,0.232592593 C2.49192783,5.16296296 -9.09494702e-13,7.62814815 -9.09494702e-13,22.4192593" id="Path"></path>
                                <path d="M12.4596391,37.2103704 L2.49192783,37.2103704 C1.11638367,37.2103704 -9.09494702e-13,36.1059674 -9.09494702e-13,34.7451852 L-9.09494702e-13,22.4192593 L12.4596391,22.4192593 C13.8351833,22.4192593 14.951567,23.5236622 14.951567,24.8844444 L14.951567,34.7451852 C14.951567,36.1059674 13.8351833,37.2103704 12.4596391,37.2103704 Z" id="Path" fill="#FFFFFF"></path>
                                <path d="M34.8869896,0.232592593 C27.4112061,5.16296296 24.9192783,7.62814815 24.9192783,22.4192593" id="Path"></path>
                                <path d="M37.3789174,37.2103704 L27.4112061,37.2103704 C26.0356619,37.2103704 24.9192783,36.1059674 24.9192783,34.7451852 L24.9192783,22.4192593 L37.3789174,22.4192593 C38.7544615,22.4192593 39.8708452,23.5236622 39.8708452,24.8844444 L39.8708452,34.7451852 C39.8708452,36.1059674 38.7544615,37.2103704 37.3789174,37.2103704 Z" id="Path" fill="#FFFFFF"></path>
                            </g>
                            <polygon id="Path" points="0 0 60 0 60 60 0 60"></polygon>
                        </g>
                    </g>
                </g>
            </g>
        </g>
    </g>
</svg>