<?xml version="1.0" encoding="UTF-8"?>
<svg width="34px" height="34px" viewBox="0 0 34 34" version="1.1" xmlns="http://www.w3.org/2000/svg" xmlns:xlink="http://www.w3.org/1999/xlink">
    <title>4FDB5CDA-8018-4EB2-A358-032EBB487D07</title>
    <g id="Page-1" stroke="none" stroke-width="1" fill="none" fill-rule="evenodd">
        <g id="Landing-page" transform="translate(-402.000000, -5466.000000)">
            <g id="Group-12" transform="translate(-1.000000, 5237.000000)">
                <g id="Group-43-Copy" transform="translate(211.000000, 80.000000)">
                    <g id="Group-42">
                        <g id="Group-41" transform="translate(0.000000, 149.000000)">
                            <g id="Twitter" transform="translate(192.000000, 0.000000)">
                                <path d="M27.2,13.2458333 C27.2,22.1708333 22.1,28.5458333 13.175,28.5458333 C8.075,28.5458333 6.03075,25.8839167 4.25,23.4458333 M4.25,23.4458333 C4.29108333,23.43875 8.075,22.1708333 8.075,22.1708333 C3.8165,17.8655833 3.4935,11.4891667 6.8,6.87083333 C8.36825,9.78775 11.2965,12.4794167 14.45,13.2458333 C14.5718333,9.5625 17.0694167,6.87083333 20.825,6.87083333 C23.3820833,6.87083333 24.8865833,7.8455 25.925,9.42083333 L29.75,9.42083333 L27.2,13.2458333" id="Shape" stroke="#323232" stroke-width="2" stroke-linecap="round" stroke-linejoin="round"></path>
                                <polygon id="Path" transform="translate(17.000000, 17.000000) rotate(-90.000000) translate(-17.000000, -17.000000) " points="-2.59514632e-15 -6.9383391e-14 34 -6.9383391e-14 34 34 -2.59514632e-15 34"></polygon>
                            </g>
                        </g>
                    </g>
                </g>
            </g>
        </g>
    </g>
</svg>