<?xml version="1.0" encoding="UTF-8"?>
<svg width="34px" height="34px" viewBox="0 0 34 34" version="1.1" xmlns="http://www.w3.org/2000/svg" xmlns:xlink="http://www.w3.org/1999/xlink">
    <title>A1D43B65-23F9-4A08-B94F-7BEAD8821E15</title>
    <g id="Page-1" stroke="none" stroke-width="1" fill="none" fill-rule="evenodd">
        <g id="Landing-page" transform="translate(-338.000000, -5466.000000)">
            <g id="Group-12" transform="translate(-1.000000, 5237.000000)">
                <g id="Group-43-Copy" transform="translate(211.000000, 80.000000)">
                    <g id="Group-42">
                        <g id="Group-41" transform="translate(0.000000, 149.000000)">
                            <g id="Youtube" transform="translate(128.000000, 0.000000)">
                                <g id="Group" stroke-linecap="round" stroke-linejoin="round" transform="translate(2.833333, 4.250000)" stroke="#323232" stroke-width="2">
                                    <path d="M27.7425833,4.77841667 C27.4181667,3.35608333 26.4576667,2.23408333 25.2365,1.84875 C23.0279167,1.15883333 14.1666667,1.15883333 14.1666667,1.15883333 C14.1666667,1.15883333 5.30966667,1.15883333 3.09683333,1.84875 C1.87991667,2.22841667 0.919416667,3.35041667 0.59075,4.77841667 C-3.1456319e-16,7.35958333 -3.1456319e-16,12.75 -3.1456319e-16,12.75 C-3.1456319e-16,12.75 -3.1456319e-16,18.1404167 0.59075,20.7215833 C0.915166667,22.1439167 1.87566667,23.2659167 3.09683333,23.65125 C5.30966667,24.3411667 14.1666667,24.3411667 14.1666667,24.3411667 C14.1666667,24.3411667 23.0279167,24.3411667 25.2365,23.65125 C26.4534167,23.2715833 27.4139167,22.1495833 27.7425833,20.7215833 C28.3333333,18.1404167 28.3333333,12.75 28.3333333,12.75 C28.3333333,12.75 28.3333333,7.35958333 27.7425833,4.77841667 Z" id="Path"></path>
                                    <polygon id="Path" points="11.3361667 17 18.6971667 12.75 11.3361667 8.5"></polygon>
                                </g>
                                <polygon id="Path" transform="translate(17.000000, 17.000000) rotate(-90.000000) translate(-17.000000, -17.000000) " points="-2.59514632e-15 1.37774377e-14 34 1.37774377e-14 34 34 -2.59514632e-15 34"></polygon>
                            </g>
                        </g>
                    </g>
                </g>
            </g>
        </g>
    </g>
</svg>